<?xml version="1.0" encoding="UTF-8" standalone="no"?>
<!-- Created with Inkscape (http://www.inkscape.org/) -->

<svg
   xmlns:dc="http://purl.org/dc/elements/1.1/"
   xmlns:cc="http://creativecommons.org/ns#"
   xmlns:rdf="http://www.w3.org/1999/02/22-rdf-syntax-ns#"
   xmlns:svg="http://www.w3.org/2000/svg"
   xmlns="http://www.w3.org/2000/svg"
   xmlns:sodipodi="http://sodipodi.sourceforge.net/DTD/sodipodi-0.dtd"
   xmlns:inkscape="http://www.inkscape.org/namespaces/inkscape"
   width="40"
   height="40"
   id="svg3102"
   version="1.1"
   inkscape:version="0.48.3.1 r9886"
   sodipodi:docname="seat_reserved.svg">
  <defs
     id="defs3104" />
  <sodipodi:namedview
     id="base"
     pagecolor="#ffffff"
     bordercolor="#666666"
     borderopacity="1.0"
     inkscape:pageopacity="0.0"
     inkscape:pageshadow="2"
     inkscape:zoom="2.8"
     inkscape:cx="33.489756"
     inkscape:cy="29.467095"
     inkscape:document-units="px"
     inkscape:current-layer="layer1"
     showgrid="false"
     fit-margin-top="0"
     fit-margin-left="0"
     fit-margin-right="0"
     fit-margin-bottom="0"
     inkscape:window-width="1600"
     inkscape:window-height="876"
     inkscape:window-x="0"
     inkscape:window-y="24"
     inkscape:window-maximized="1" />
  <metadata
     id="metadata3107">
    <rdf:RDF>
      <cc:Work
         rdf:about="">
        <dc:format>image/svg+xml</dc:format>
        <dc:type
           rdf:resource="http://purl.org/dc/dcmitype/StillImage" />
        <dc:title></dc:title>
      </cc:Work>
    </rdf:RDF>
  </metadata>
  <g
     inkscape:label="Calque 1"
     inkscape:groupmode="layer"
     id="layer1"
     transform="translate(-350.6204,-511.1676)">
    <g
       transform="matrix(2.6221758,0,0,2.6221758,39.647612,395.64268)"
       style="fill-rule:evenodd"
       id="g3085">
      <path
         inkscape:connector-curvature="0"
         id="path11191"
         class="fil0"
         d="m 128.62336,49.535013 1.12905,0 0.55144,0.131241 0.55144,0 0.55144,-0.131241 0.26258,-0.262586 0,-0.420199 -0.26258,-0.420095 -0.28886,-0.288855 -0.39393,-0.131241 -0.70895,-0.131344 -0.68268,0 -0.97153,-0.15751 -1.10289,0 -1.81183,0.15751 -1.39174,0.131344 -0.81402,0.420096 -0.15751,0.131344 -0.13135,0.288751 0.13135,0.420199 0.28885,0.262586 0.55144,0.131241 0.97154,-0.131241 1.10288,0 0,0.840294 -1.10288,0 -0.55144,0.131241 -0.55144,0.288855 -0.28886,0.393826 -0.13124,0.420199 0,1.102775 -0.84029,0 0,-1.102775 -0.26259,-0.420199 -0.28885,-0.131241 -0.4201,-0.131345 -0.26258,0.131345 -0.28886,0.131241 -0.13124,0.157614 -0.13134,0.262585 0,0.971536 0,3.045953 0.13134,0.288854 0.13124,0.131345 0.28886,0.28875 0.26258,0 0.4201,0 0.28885,-0.28875 0.26259,-0.420199 0,-1.23412 0.84029,0 0,0.55144 0.13124,0.420095 0.15762,0.55144 0.81402,0.814026 1.10278,0.55144 1.68058,0.288854 1.78557,-0.288854 1.26039,-0.55144 0.68268,-0.814026 0.28885,-0.971535 0,-0.55144 0.81403,0 0,1.23412 0.15751,0.288854 0.13134,0.131345 0.26259,0.28875 0.42009,0 0.28886,0 0.26258,-0.28875 0.28886,-0.131345 0,-0.288854 0,-3.045953 0,-0.971536 0,-0.262585 -0.28886,-0.157614 -0.26258,-0.131241 -0.28886,-0.131345 -0.42009,0.131345 -0.26259,0.131241 -0.13134,0.157614 -0.15751,0.262585 0,1.102775 -0.81403,0 0,-1.102775 -0.15751,-0.420199 -0.26258,-0.393826 -0.55144,-0.288855 -0.55144,-0.131241 -1.12905,0 0,-0.840294 z m -5.25171,3.177188 0,1.680588 0,-1.680588 z m -0.8403,1.680588 0,-1.680588 0,1.680588 z m 9.55806,-1.680588 0,1.680588 0,-1.680588 z m -0.81403,1.680588 0,-1.680588 0,1.680588 z m -5.27787,-4.857786 2.62586,0 -2.62586,0 z m 2.62586,0.840294 -2.62586,0 2.62586,0 z"
         style="fill:#808080" />
      <path
         inkscape:connector-curvature="0"
         id="path11193"
         class="fil1"
         d="m 127.5205,48.432129 1.10289,0 0.55134,0.131344 0.57771,0 0.55144,-0.131344 0.26258,-0.288855 0,-0.420095 -0.26258,-0.393931 -0.28886,-0.288854 -0.42009,-0.131241 -0.68279,-0.131345 -0.68268,0 -0.97154,-0.157509 -1.12914,0 -1.78556,0.157509 -1.39174,0.131345 -0.84019,0.420095 -0.13134,0.131345 -0.13125,0.262586 0.13125,0.420095 0.28885,0.288855 0.55144,0.131344 0.97154,-0.131344 1.10288,0 0,0.840294 -1.10288,0 -0.55144,0.131241 -0.55134,0.262586 -0.28886,0.420199 -0.13134,0.420095 0,1.102884 -0.84029,0 0,-1.102884 -0.26259,-0.420095 -0.28875,-0.131345 -0.4202,-0.131241 -0.26258,0.131241 -0.28886,0.131345 -0.13124,0.131241 -0.13134,0.288854 0,0.971536 0,3.045952 0.13134,0.288855 0.13124,0.131345 0.28886,0.262585 0.26258,0 0.4202,0 0.28875,-0.262585 0.26259,-0.4202 0,-1.26039 0.84029,0 0,0.577709 0.13134,0.39393 0.13125,0.577605 0.84029,0.814026 1.10288,0.55144 1.65422,0.288854 1.81183,-0.288854 1.23412,-0.55144 0.70906,-0.814026 0.26258,-0.971535 0,-0.577709 0.84019,0 0,1.26039 0.13135,0.288855 0.15751,0.131345 0.26258,0.262585 0.4202,0 0.28875,0 0.26259,-0.262585 0.28885,-0.131345 0,-0.288855 0,-3.045952 0,-0.971536 0,-0.288854 -0.28885,-0.131241 -0.26259,-0.131345 -0.28875,-0.131241 -0.4202,0.131241 -0.26258,0.131345 -0.15751,0.131241 -0.13135,0.288854 0,1.102884 -0.84019,0 0,-1.102884 -0.13134,-0.420095 -0.26259,-0.420199 -0.57771,-0.262586 -0.55133,-0.131241 -1.10289,0 0,-0.840294 z m -5.25171,3.177297 0,1.654218 0,-1.654218 z m -0.84029,1.654218 0,-1.654218 0,1.654218 z m 9.55806,-1.654218 0,1.654218 0,-1.654218 z m -0.8402,1.654218 0,-1.654218 0,1.654218 z m -5.25171,-4.831515 2.62586,0 -2.62586,0 z m 2.62586,0.840294 -2.62586,0 2.62586,0 z"
         style="fill:#ff2727;fill-opacity:1;stroke:#000000;stroke-width:0.46700397;stroke-miterlimit:4;stroke-opacity:1;stroke-dasharray:none" />
    </g>
  </g>
</svg>
